<svg width="355" height="501" viewBox="0 0 355 501" fill="none" xmlns="http://www.w3.org/2000/svg">
<g clip-path="url(#clip0_220_10613)">
<path d="M208.164 222.801C207.493 222.023 209.233 166.837 209.233 166.837L262.15 121.279L257.979 185.419L208.164 222.801Z" fill="#3B455A"/>
<path d="M224.334 201.746C235.43 193.196 263.876 172.817 281.044 171.465C277.125 188.25 252.734 213.353 242.632 223.053C239.227 226.334 235.482 229.242 231.46 231.729L199.685 251.169C194.516 251.446 189.094 245.113 190.103 240.066L214.055 211.541C217.12 207.917 220.567 204.633 224.334 201.746Z" fill="#874CF6"/>
<path d="M202.486 241.645C204.022 243.352 205.679 244.945 207.444 246.414L199.803 251.098C194.628 251.375 189.211 245.042 190.22 239.995L196.197 232.854C197.71 236.119 200.08 239.031 202.486 241.645Z" fill="#BCBEC0"/>
<path opacity="0.12" d="M260.069 153.352L208.624 187.826L208.326 199.515L259.816 157.228L260.069 153.352Z" fill="black"/>
<path d="M116.508 116.162C117.179 116.939 171.988 123.465 171.988 123.465L224.91 77.9126L160.861 72.457L116.508 116.162Z" fill="#3B455A"/>
<path d="M139.707 103.308C149.794 93.618 174.205 68.5102 178.124 51.7246C160.951 53.0923 132.495 73.4763 121.409 82.0054C117.658 84.8821 114.225 88.1526 111.17 91.7608L87.213 120.28C86.1639 125.357 91.606 131.681 96.7959 131.383L128.571 111.943C132.579 109.469 136.312 106.575 139.707 103.308Z" fill="#874CF6"/>
<path d="M97.0134 118.963C95.5572 117.187 94.2291 115.31 93.039 113.346L87.254 120.209C86.2049 125.286 91.647 131.61 96.8369 131.312L104.765 126.462C101.759 124.534 99.2376 121.739 97.0134 118.963Z" fill="#BCBEC0"/>
<path opacity="0.12" d="M192.862 75.1816L151.111 120.936L139.516 119.482L188.994 74.8535L192.862 75.1816Z" fill="black"/>
<path d="M132.411 159.981L162.324 194.779L170.767 187.513L140.854 152.714L132.411 159.981Z" fill="#242A35"/>
<path d="M121.828 163.411L157.739 205.178L164.008 195.382L132.44 158.672L121.828 163.411Z" fill="#BCBEC0"/>
<path d="M230.744 36.0138C256.512 18.7185 286.219 7.16636 316.738 1.81172C328.363 -0.207001 344.321 -0.822709 354.888 1.47863C355.584 12.2788 352.613 27.9793 348.86 39.1731C339.01 68.5808 323.138 96.2473 302.217 119.16C279.95 143.521 251.216 159.13 224.757 178.258L185.75 206.454L156.411 172.333L127.098 138.206L160.784 103.828C183.627 80.5013 203.342 54.4094 230.744 36.0138Z" fill="#7558C9"/>
<path d="M116.824 162.465L157.538 209.829C157.954 210.313 158.683 210.368 159.167 209.951L160.398 208.892C160.881 208.476 160.936 207.746 160.52 207.262L119.807 159.898C119.391 159.414 118.661 159.359 118.178 159.776L116.947 160.835C116.463 161.251 116.408 161.981 116.824 162.465Z" fill="#3B455A"/>
<path d="M170.015 188.139L140.096 153.342L134.473 158.187L168.441 189.497L170.015 188.139Z" fill="#3B455A"/>
<path d="M185.977 206.707L127.305 138.459L143.944 121.406L204.311 192.778L185.977 206.707Z" fill="#BCBEC0"/>
<path d="M96.7621 184.985C98.9803 183.543 101.38 182.402 103.899 181.593C111.832 179.07 120.598 179.867 126.792 184.803L127.145 185.056C132.445 188.97 136.448 194.387 138.634 200.605C139.137 201.876 139.497 203.2 139.709 204.551C140.19 206.946 140.391 209.388 140.309 211.829C140.262 214.582 139.684 217.3 138.604 219.833C137.398 222.361 135.796 224.68 133.858 226.702C127.301 233.898 118.954 238.88 110.657 242.715C106.567 244.603 102.441 246.248 98.371 247.792C96.3536 248.569 94.2756 249.266 92.3187 250.083C91.5722 250.396 87.724 251.673 87.5777 252.223C87.5777 252.223 88.5511 248.504 89.4388 240.762C81.369 244.476 73.9347 247.58 64.1652 250.3C64.1652 250.3 70.7219 237.31 76.8096 227.782C71.8366 228.513 64.0845 230.946 58.3398 233.106C58.9098 232.894 59.7722 230.931 60.1102 230.431C65.063 223.068 70.3437 215.498 76.048 207.766C81.8532 199.918 87.8097 190.703 96.7621 184.985Z" fill="#7558C9"/>
<path d="M104.872 192.944C106.128 192.134 107.484 191.493 108.907 191.036C113.411 189.638 118.384 190.098 121.894 192.904L122.096 193.045C125.109 195.268 127.389 198.342 128.642 201.872C128.927 202.593 129.134 203.342 129.258 204.108C129.531 205.468 129.65 206.854 129.611 208.241C129.589 209.802 129.265 211.345 128.658 212.783C127.979 214.221 127.075 215.541 125.979 216.694C122.262 220.802 117.526 223.659 112.79 225.864C110.455 226.954 108.095 227.883 105.77 228.791C104.605 229.246 103.424 229.649 102.29 230.124C101.861 230.3 99.6518 231.047 99.5711 231.365C100.066 229.194 100.425 226.995 100.645 224.779C95.9615 227.029 91.0955 228.878 86.0996 230.305C86.0996 230.305 89.8924 222.821 93.4128 217.345C90.3708 217.913 87.3813 218.733 84.4755 219.798C84.3566 219.836 84.2287 219.837 84.1097 219.799C83.9907 219.761 83.8864 219.687 83.8114 219.587C83.7365 219.487 83.6946 219.366 83.6916 219.241C83.6886 219.116 83.7246 218.993 83.7946 218.89C86.6745 214.655 89.7259 210.31 93.0144 205.904C96.3028 201.498 99.7678 196.179 104.872 192.944Z" fill="#929AE2"/>
<path d="M207.443 246.414C207.443 246.414 197.441 237.668 196.195 232.853L199.221 229.189C199.221 229.189 205.334 238.713 211.765 243.76L207.443 246.414Z" fill="#929AE2"/>
<path d="M297.097 78.9903C298.103 60.82 284.198 45.2744 266.039 44.2681C247.88 43.2617 232.344 57.1758 231.339 75.346C230.333 93.5162 244.238 109.062 262.397 110.068C280.556 111.075 296.092 97.1605 297.097 78.9903Z" fill="#929AE2"/>
<path d="M297.365 77.0795C296.656 68.5454 292.653 60.6229 286.207 54.9907C279.76 49.3584 271.375 46.4589 262.828 46.9064C254.282 47.3539 246.245 51.1132 240.421 57.3879C234.597 63.6626 231.442 71.9598 231.627 80.5214L297.365 77.0795Z" fill="#D7E8F4"/>
<path d="M241.296 50.5033C246.567 45.9664 253.064 43.0952 259.966 42.2529C266.867 41.4106 273.863 42.635 280.069 45.7713C286.275 48.9075 291.413 53.8147 294.832 59.8725C298.25 65.9302 299.798 72.8663 299.277 79.8038C298.757 86.7413 296.192 93.3685 291.907 98.8475C287.623 104.327 281.811 108.411 275.206 110.585C268.602 112.759 261.501 112.924 254.803 111.06C248.105 109.196 242.109 105.387 237.574 100.113C231.502 93.037 228.483 83.8389 229.181 74.5379C229.879 65.2369 234.236 56.593 241.296 50.5033ZM244.201 53.8846C239.597 57.8461 236.27 63.085 234.641 68.9388C233.012 74.7926 233.155 80.9983 235.051 86.7709C236.947 92.5435 240.511 97.6238 245.293 101.369C250.075 105.114 255.86 107.357 261.915 107.812C267.971 108.267 274.025 106.916 279.313 103.928C284.601 100.94 288.884 96.4494 291.621 91.0252C294.358 85.6011 295.427 79.4865 294.69 73.4548C293.954 67.4232 291.447 61.7455 287.486 57.1398C282.172 50.9735 274.631 47.1679 266.516 46.5577C258.402 45.9475 250.377 48.5824 244.201 53.8846Z" fill="#3B455A"/>
<path d="M103.151 127.87C103.151 127.87 93.1494 119.104 91.9238 114.305L94.95 110.641C94.95 110.641 101.048 120.144 107.478 125.216L103.151 127.87Z" fill="#929AE2"/>
<path d="M16.8443 408.896L16.7031 415.119C23.8349 416.171 31.0421 416.625 38.2495 416.477C37.0037 413.595 38.194 409.613 33.2563 409.043C31.6625 408.861 16.8343 409.295 16.8443 408.896Z" fill="#E5D1BD"/>
<path d="M17.0216 417.875C16.6794 418.313 16.2488 418.674 15.7579 418.935C15.2669 419.196 14.7265 419.351 14.1719 419.389C13.4769 419.38 12.7826 419.439 12.099 419.565C11.5221 419.778 11.0036 420.123 10.5859 420.575C8.25577 422.735 2.57161 429.876 0.281811 421.912C-1.79616 414.69 8.05907 407.887 12.8909 404.354C13.1985 404.077 13.5842 403.9 13.9954 403.85C14.4997 403.874 14.99 404.023 15.4227 404.284C17.9446 405.566 21.8836 407.463 20.3302 410.289C19.6644 411.495 18.1513 412.131 17.5259 413.474C17.0266 414.599 17.5814 417.097 17.0216 417.875Z" fill="#0D1014"/>
<path d="M113.749 357.63C105.517 365.735 102.078 376.303 94.7039 385.15C80.4456 402.229 26.1914 405.998 26.1914 405.998C26.1914 405.998 27.3111 418.05 28.2593 419.322C41.2113 422.128 84.304 426.196 103.379 414.109C122.01 402.313 140.1 389.696 157.648 376.258C160.861 373.795 164.351 370.827 164.805 367.063C165.158 364.181 163.59 361.642 161.976 359.417C157.648 353.461 150.375 342.035 141.801 341.637C132.46 341.198 120.078 351.397 113.749 357.63Z" fill="#874CF6"/>
<path d="M64.1953 479.652L67.3274 485.032C73.9562 482.207 80.3369 478.83 86.4024 474.939C83.8352 473.132 82.771 469.115 78.267 471.209C76.8094 471.875 64.4021 480.006 64.1953 479.652Z" fill="#E5D1BD"/>
<path d="M69.1483 487.989C69.0261 488.531 68.7909 489.042 68.4581 489.487C68.1252 489.933 67.7021 490.302 67.2166 490.573C66.5868 490.866 65.9857 491.218 65.4211 491.623C64.9871 492.067 64.6655 492.609 64.483 493.202C63.328 496.165 61.255 505.052 55.7777 498.855C50.7996 493.223 56.7864 482.846 59.6411 477.572C59.8047 477.192 60.0811 476.872 60.4329 476.654C60.8986 476.462 61.4044 476.387 61.9057 476.437C64.7553 476.497 69.108 476.533 68.9163 479.753C68.8306 481.125 67.7361 482.352 67.7462 483.83C67.7563 485.042 69.3248 487.06 69.1483 487.989Z" fill="#0D1014"/>
<path d="M119.917 380.902C117.203 392.686 120.113 403.956 118.56 415.891C115.564 438.965 69.8184 472.804 69.8184 472.804C69.8184 472.804 77.5754 482.807 79.1238 483.402C92.1263 478.603 132.43 457.961 142.482 436.573C152.29 415.696 161.163 394.39 169.102 372.655C170.555 368.674 171.967 364.076 170.257 360.543C168.946 357.798 166.141 356.445 163.463 355.39C156.306 352.564 143.455 346.584 135.688 351.035C127.195 355.88 122 371.848 119.917 380.902Z" fill="#874CF6"/>
<path d="M175.906 275.11L166.076 274.736C165.883 272.125 165.9 269.502 166.126 266.893C163.352 266.106 160.129 264.875 159.479 262.059C159.327 261.16 159.327 260.242 159.479 259.343C159.892 255.609 160.304 251.874 160.714 248.14C160.773 246.838 161.087 245.561 161.637 244.38C162.737 242.361 165.052 241.402 167.271 240.847C172.925 239.505 179.235 240.342 183.915 243.835C185.202 244.712 186.236 245.913 186.911 247.317C187.849 249.512 187.415 252.026 186.911 254.382C186.484 256.543 186.057 258.704 185.63 260.868C185.126 263.351 184.379 266.192 182.099 267.252C180.879 267.817 179.391 267.756 178.307 268.554C176.365 269.962 176.819 272.914 175.906 275.11Z" fill="#EACDB0"/>
<path d="M206.651 236.23C207.149 235.274 207.71 234.351 208.33 233.469C209.687 231.572 211.397 229.911 212.456 227.832C213.515 225.753 213.757 223.002 212.229 221.241C211.22 220.105 209.707 219.601 208.254 219.263C203.39 218.157 198.319 218.375 193.567 219.894C189.074 221.337 185.099 223.517 180.399 222.079C175.975 220.731 172.894 221.574 168.481 223.467C163.699 225.516 157.163 226.328 152.891 229.064C151.129 230.26 149.686 231.869 148.689 233.752C146.928 236.989 146.109 240.654 146.325 244.333C146.541 248.012 147.783 251.557 149.91 254.565C150.901 255.881 152.005 257.109 153.208 258.234C155.67 260.596 158.615 263.518 161.843 264.25C161.747 261.403 158.61 252.612 160.648 250.149C163.881 246.243 171.779 247.05 176.122 247.696C180.863 248.403 185.24 251.461 189.921 251.885C193.29 252.193 197.451 250.29 200.185 248.388C203.554 246.041 204.805 239.722 206.651 236.23Z" fill="#3B455A"/>
<path d="M157.19 273.43C137.938 280.773 128.784 309.676 119.363 326.35C112.907 337.771 104.186 350.631 91.083 351.029C82.6198 351.287 75.0695 346.038 68.3867 340.81C70.2024 351.145 73.0369 362.925 82.3928 367.674C89.3026 371.206 97.7507 369.637 105.089 372.175C112.987 374.911 119.337 382.269 127.69 382.395C134.029 382.481 139.643 378.262 145.907 377.303C155.591 375.789 164.513 382.148 172.684 387.558C175.059 389.133 177.828 390.722 180.602 390.081C184.163 389.233 185.858 385.181 186.564 381.588C189.787 365.191 183.86 349.066 182.478 332.836C181.238 318.271 188.975 305.669 187.446 290.866C186.367 280.45 178.61 272.733 168.175 271.84C164.44 271.522 160.682 272.066 157.19 273.43Z" fill="#929AE2"/>
<path d="M214.584 210.526L210.156 215.068C209.697 215.538 208.179 216.582 208.799 217.385C209.102 217.778 210.015 219.212 211.008 220.589C211.422 221.967 211.886 223.33 212.178 224.738C212.915 228.306 210.69 236.628 215.089 238.011C215.915 238.33 216.795 238.487 217.681 238.475C218.388 238.383 219.072 238.161 219.698 237.819C220.203 237.572 221.055 237.314 221.211 236.759C221.368 236.204 220.914 234.665 220.823 234.024C220.568 232.194 220.309 230.362 220.046 228.528C219.794 226.731 219.648 224.597 220.894 223.481C221.187 223.265 221.465 223.029 221.726 222.775C221.976 222.423 222.148 222.022 222.23 221.599C222.683 220.032 222.963 218.421 223.068 216.794C223.143 215.305 222.235 214.644 221.378 213.589C220.369 212.353 220.258 210.773 219.295 209.552C219.058 209.197 218.73 208.911 218.347 208.724C217.963 208.537 217.537 208.455 217.111 208.487C216.465 208.685 215.893 209.074 215.472 209.603L214.584 210.526Z" fill="#EACDB0"/>
<path d="M222.6 276.761C224.451 273.339 225.485 269.574 225.908 264.982C226.952 253.549 226.377 242.026 224.198 230.754C219.347 230.005 214.391 230.329 209.678 231.703C209.518 241.062 208.675 250.396 207.156 259.632C206.415 264.134 205.063 267.954 201.104 269.983C192.365 274.491 183.269 278.268 173.909 281.278C171.846 281.939 169.722 282.59 167.997 283.963C164.83 286.486 163.509 291.24 164.215 295.57C164.921 299.901 167.412 303.827 170.555 306.673C172.809 308.692 175.522 310.307 178.382 310.453C181.338 310.6 184.102 309.207 186.689 307.743C198.363 301.13 208.949 292.757 218.075 282.918C219.84 281.068 221.361 278.998 222.6 276.761Z" fill="#929AE2"/>
</g>
<defs>
<clipPath id="clip0_220_10613">
<rect width="355" height="501" fill="white"/>
</clipPath>
</defs>
</svg>
