<svg width="319" height="272" viewBox="0 0 319 272" fill="none" xmlns="http://www.w3.org/2000/svg">
<g clip-path="url(#clip0_220_10583)">
<path d="M161.125 239.886C160.404 239.05 162.269 179.755 162.269 179.755L219.171 130.807L214.686 199.721L161.125 239.886Z" fill="#3B455A"/>
<path d="M178.51 217.263C190.441 208.078 221.026 186.182 239.485 184.729C235.272 202.764 209.047 229.735 198.185 240.157C194.523 243.682 190.497 246.807 186.173 249.479L152.009 270.366C146.451 270.664 140.621 263.859 141.706 258.436L167.459 227.789C170.755 223.895 174.46 220.366 178.51 217.263Z" fill="#874CF6"/>
<path d="M155.017 260.133C156.669 261.967 158.45 263.679 160.348 265.258L152.132 270.29C146.568 270.588 140.744 263.783 141.829 258.36L148.255 250.709C149.865 254.196 152.43 257.324 155.017 260.133Z" fill="#BCBEC0"/>
<path opacity="0.12" d="M216.93 165.268L161.611 202.309L161.297 214.867L216.659 169.432L216.93 165.268Z" fill="black"/>
<path d="M62.5469 125.308C63.2681 126.143 122.198 133.155 122.198 133.155L179.101 84.2113L110.263 78.3496L62.5469 125.308Z" fill="#3B455A"/>
<path d="M87.5136 111.498C98.3594 101.086 124.606 74.1094 128.82 56.0742C110.355 57.5437 79.7589 79.4452 67.8395 88.6092C63.8063 91.7001 60.1158 95.2141 56.8311 99.0909L31.0725 129.755C29.9445 135.21 35.7958 142.004 41.3759 141.685L75.5399 120.797C79.851 118.133 83.865 115.015 87.5136 111.498Z" fill="#874CF6"/>
<path d="M41.6143 128.318C40.0486 126.411 38.6206 124.394 37.3411 122.283L31.1428 129.658C30.0148 135.113 35.8661 141.907 41.4462 141.587L49.971 136.376C46.7172 134.305 44.0058 131.301 41.6143 128.318Z" fill="#BCBEC0"/>
<path opacity="0.12" d="M144.676 81.2782L99.7797 130.439L87.3125 128.877L140.511 80.9258L144.676 81.2782Z" fill="black"/>
<path d="M79.668 172.388L111.83 209.777L120.908 201.97L88.7456 164.58L79.668 172.388Z" fill="#242A35"/>
<path d="M68.2949 176.074L106.9 220.951L113.641 210.426L79.7046 170.982L68.2949 176.074Z" fill="#BCBEC0"/>
<path d="M185.402 39.1944C213.118 20.6115 245.048 8.19942 277.873 2.44615C290.372 0.277153 307.53 -0.384391 318.891 2.08827C319.639 13.6924 316.445 30.5618 312.411 42.5889C301.82 74.1858 284.754 103.912 262.26 128.53C238.313 154.704 207.424 171.476 178.954 192.027L137.035 222.323L105.491 185.661L73.9512 148.994L110.17 112.056C134.741 86.9937 155.939 58.9594 185.402 39.1944Z" fill="#7558C9"/>
<path d="M62.9092 175.063L106.684 225.953C107.132 226.473 107.916 226.532 108.436 226.085L109.759 224.946C110.279 224.499 110.338 223.715 109.891 223.195L66.116 172.305C65.6687 171.785 64.8847 171.726 64.3647 172.174L63.0409 173.312C62.5209 173.759 62.462 174.543 62.9092 175.063Z" fill="#3B455A"/>
<path d="M120.106 202.644L87.9371 165.256L81.8906 170.461L118.414 204.103L120.106 202.644Z" fill="#3B455A"/>
<path d="M137.27 222.594L74.1855 149.266L92.0756 130.943L156.982 207.628L137.27 222.594Z" fill="#BCBEC0"/>
<path d="M41.3383 199.255C43.724 197.707 46.3042 196.482 49.0116 195.611C57.5418 192.9 66.9667 193.757 73.626 199.06L74.0056 199.331C79.7041 203.537 84.0078 209.357 86.3589 216.038C86.8992 217.404 87.2866 218.827 87.514 220.278C88.0313 222.851 88.2478 225.475 88.1593 228.098C88.1095 231.056 87.4871 233.976 86.3264 236.698C85.0299 239.415 83.3051 241.907 81.218 244.078C74.1683 251.81 65.1989 257.162 56.2729 261.283C51.8749 263.311 47.439 265.079 43.0628 266.738C40.8936 267.573 38.6594 268.322 36.5553 269.2C35.7527 269.536 31.6151 270.908 31.4578 271.499C31.4578 271.499 32.5044 267.503 33.4589 259.185C24.7823 263.176 16.789 266.511 6.28489 269.433C6.28489 269.433 13.3346 255.476 19.88 245.238C14.5331 246.024 6.19813 248.638 0.0214844 250.959C0.634268 250.731 1.56158 248.622 1.92491 248.085C7.25016 240.173 12.9387 232.04 19.072 223.732C25.3137 215.3 31.7181 205.399 41.3383 199.255Z" fill="#7558C9"/>
<path d="M50.0642 207.807C51.4227 206.935 52.8905 206.245 54.4296 205.757C59.2722 204.255 64.6191 204.749 68.3934 207.764L68.6104 207.916C71.8401 210.308 74.2817 213.61 75.6221 217.399C75.9292 218.173 76.1493 218.979 76.2783 219.802C76.577 221.262 76.7062 222.752 76.6633 224.243C76.6368 225.92 76.2888 227.577 75.6384 229.123C74.9084 230.668 73.9363 232.087 72.7588 233.325C68.7622 237.739 63.6701 240.808 58.5781 243.178C56.0673 244.349 53.5294 245.347 51.0294 246.323C49.7767 246.811 48.5078 247.245 47.2876 247.755C46.8267 247.944 44.4515 248.747 44.3647 249.089C44.897 246.756 45.2828 244.393 45.5198 242.012C40.4837 244.43 35.2518 246.416 29.8803 247.95C29.8803 247.95 33.9582 239.908 37.7434 234.025C34.4726 234.635 31.2584 235.516 28.1341 236.66C28.0062 236.701 27.8687 236.702 27.7408 236.661C27.6128 236.62 27.5007 236.541 27.4201 236.433C27.3395 236.326 27.2944 236.196 27.2912 236.061C27.288 235.927 27.3267 235.795 27.402 235.684C30.4985 231.135 33.7793 226.466 37.315 221.732C40.8507 216.998 44.5762 211.283 50.0642 207.807Z" fill="#929AE2"/>
<path d="M160.349 265.259C160.349 265.259 149.595 255.862 148.277 250.689L151.531 246.752C151.531 246.752 158.082 256.984 164.996 262.407L160.349 265.259Z" fill="#7DB5DB"/>
<path d="M256.747 85.3787C257.829 65.8559 242.878 49.1529 223.353 48.0717C203.829 46.9904 187.125 61.9403 186.044 81.4632C184.963 100.986 199.913 117.689 219.438 118.77C238.962 119.852 255.666 104.902 256.747 85.3787Z" fill="#929AE2"/>
<path d="M257.043 83.3174C256.28 74.1479 251.977 65.6357 245.046 59.5841C238.114 53.5326 229.099 50.4172 219.909 50.898C210.72 51.3788 202.079 55.418 195.817 62.1598C189.555 68.9017 186.164 77.8165 186.362 87.0155L257.043 83.3174Z" fill="#D7E8F4"/>
<path d="M196.746 54.7617C202.413 49.8871 209.399 46.8022 216.819 45.8972C224.239 44.9922 231.762 46.3077 238.434 49.6774C245.107 53.0472 250.631 58.3197 254.307 64.8284C257.983 71.3371 259.646 78.7896 259.086 86.2435C258.527 93.6974 255.769 100.818 251.163 106.705C246.556 112.592 240.307 116.981 233.206 119.316C226.105 121.652 218.47 121.83 211.268 119.827C204.066 117.824 197.62 113.731 192.744 108.065C186.215 100.462 182.969 90.579 183.72 80.5856C184.47 70.5922 189.155 61.3048 196.746 54.7617ZM199.87 58.3948C194.92 62.652 191.344 68.2811 189.595 74.5704C187.845 80.8597 187.999 87.5266 190.038 93.7281C192.078 99.9295 195.911 105.387 201.052 109.41C206.193 113.434 212.412 115.842 218.922 116.331C225.433 116.821 231.942 115.368 237.627 112.158C243.311 108.948 247.917 104.125 250.86 98.2979C253.803 92.4708 254.952 85.9018 254.162 79.4216C253.371 72.9415 250.677 66.8413 246.419 61.8923C240.706 55.2638 232.595 51.1727 223.868 50.517C215.141 49.8613 206.51 52.6945 199.87 58.3948Z" fill="#3B455A"/>
<path d="M48.2139 137.889C48.2139 137.889 37.4603 128.47 36.1426 123.314L39.3963 119.377C39.3963 119.377 45.9525 129.588 52.8667 135.037L48.2139 137.889Z" fill="#7DB5DB"/>
</g>
<defs>
<clipPath id="clip0_220_10583">
<rect width="319" height="271" fill="white" transform="translate(0 0.5)"/>
</clipPath>
</defs>
</svg>
