<svg width="62" height="62" viewBox="0 0 62 62" fill="none" xmlns="http://www.w3.org/2000/svg">
<rect width="62" height="62" rx="31" fill="#D2F9D8"/>
<path d="M27.666 33.3336C27.666 34.627 28.666 35.667 29.8927 35.667H32.3993C33.466 35.667 34.3327 34.7603 34.3327 33.627C34.3327 32.4136 33.7994 31.9736 33.0127 31.6936L28.9993 30.2936C28.2127 30.0136 27.6794 29.587 27.6794 28.3603C27.6794 27.2403 28.546 26.3203 29.6127 26.3203H32.1193C33.346 26.3203 34.346 27.3603 34.346 28.6536" stroke="#0B011D" stroke-width="1.5" stroke-linecap="round" stroke-linejoin="round"/>
<path d="M31 25V37" stroke="#0B011D" stroke-width="1.5" stroke-linecap="round" stroke-linejoin="round"/>
<path d="M44.3327 30.9993C44.3327 38.3593 38.3593 44.3327 30.9993 44.3327C23.6393 44.3327 17.666 38.3593 17.666 30.9993C17.666 23.6393 23.6393 17.666 30.9993 17.666" stroke="#0B011D" stroke-width="1.5" stroke-linecap="round" stroke-linejoin="round"/>
<path d="M44.3333 22.9993V17.666H39" stroke="#0B011D" stroke-width="1.5" stroke-linecap="round" stroke-linejoin="round"/>
<path d="M37.666 24.3327L44.3327 17.666" stroke="#0B011D" stroke-width="1.5" stroke-linecap="round" stroke-linejoin="round"/>
</svg>
