<svg width="62" height="62" viewBox="0 0 62 62" fill="none" xmlns="http://www.w3.org/2000/svg">
<rect width="62" height="62" rx="31" fill="#F9D2EC"/>
<path d="M41.2882 19.487L17.9882 26.0495C17.7899 26.1037 17.6131 26.2177 17.4819 26.3761C17.3507 26.5344 17.2715 26.7294 17.2551 26.9343C17.2387 27.1393 17.2859 27.3443 17.3903 27.5215C17.4946 27.6987 17.651 27.8394 17.8382 27.9245L28.5382 32.987C28.7478 33.084 28.9162 33.2524 29.0132 33.462L34.0757 44.162C34.1608 44.3492 34.3015 44.5056 34.4787 44.6099C34.6559 44.7143 34.8609 44.7615 35.0659 44.7451C35.2708 44.7287 35.4658 44.6495 35.6241 44.5183C35.7825 44.3871 35.8965 44.2103 35.9507 44.012L42.5132 20.712C42.563 20.5419 42.566 20.3617 42.5221 20.19C42.4782 20.0184 42.389 19.8618 42.2637 19.7365C42.1384 19.6112 41.9818 19.522 41.8102 19.4781C41.6385 19.4342 41.4583 19.4372 41.2882 19.487V19.487Z" stroke="#0B011D" stroke-width="2" stroke-linecap="round" stroke-linejoin="round"/>
<path d="M28.8633 33.1383L34.5133 27.4883" stroke="#0B011D" stroke-width="2" stroke-linecap="round" stroke-linejoin="round"/>
</svg>
