<svg width="314" height="130" viewBox="0 0 314 130" fill="none" xmlns="http://www.w3.org/2000/svg">
<g clip-path="url(#clip0_1069_22976)">
<circle cx="81.7511" cy="38.256" r="6.42796" fill="#F1F1F1" stroke="black" stroke-width="0.646219"/>
<rect x="77.8125" y="4.50098" width="119.269" height="13.5021" rx="6.75107" fill="#F1F1F1"/>
<rect x="118.883" y="31.5049" width="119.269" height="13.5021" rx="6.75107" fill="#F1F1F1"/>
<rect x="96.3789" y="59.0723" width="82.138" height="13.5021" rx="6.75107" fill="#F1F1F1"/>
<rect x="78.412" y="16.7939" width="72.1366" height="47.3827" rx="4.66975" transform="rotate(-12.9733 78.412 16.7939)" fill="#F3F3F3" stroke="#999999"/>
<rect x="116.57" y="27.5039" width="72.1366" height="47.3827" rx="4.66975" fill="#F3F3F3" stroke="#999999"/>
<rect x="117.758" y="39.9443" width="69.7611" height="10.1266" fill="#DDDDDD"/>
<path d="M117.758 39.9443H144.2M146.731 39.9443H153.201M155.733 39.9443H181.612M187.238 50.0709H168.672M162.202 50.0709H130.135" stroke="#999999" stroke-linecap="round"/>
<circle cx="203.833" cy="65.8233" r="6.42796" fill="#F1F1F1" stroke="black" stroke-width="0.646219"/>
<circle cx="217.337" cy="11.252" r="6.75107" fill="#F1F1F1"/>
</g>
<path d="M4.48 124V119.44L0.16 113.024H1.904L5.248 118.096H5.328L8.656 113.024H10.32L6.016 119.44V124H4.48ZM13.7688 124.192C12.9154 124.192 12.1954 124.037 11.6087 123.728C11.0327 123.408 10.5901 122.923 10.2807 122.272C9.98208 121.621 9.83275 120.795 9.83275 119.792C9.83275 118.779 9.98208 117.952 10.2807 117.312C10.5901 116.661 11.0327 116.181 11.6087 115.872C12.1954 115.552 12.9154 115.392 13.7688 115.392C14.6221 115.392 15.3368 115.552 15.9128 115.872C16.4994 116.181 16.9421 116.661 17.2408 117.312C17.5394 117.952 17.6888 118.779 17.6888 119.792C17.6888 120.795 17.5394 121.621 17.2408 122.272C16.9421 122.923 16.4994 123.408 15.9128 123.728C15.3368 124.037 14.6221 124.192 13.7688 124.192ZM13.7688 123.008C14.3128 123.008 14.7661 122.901 15.1287 122.688C15.4914 122.475 15.7634 122.144 15.9448 121.696C16.1368 121.237 16.2327 120.661 16.2327 119.968V119.616C16.2327 118.912 16.1368 118.336 15.9448 117.888C15.7634 117.44 15.4914 117.109 15.1287 116.896C14.7661 116.683 14.3128 116.576 13.7688 116.576C13.2248 116.576 12.7661 116.683 12.3928 116.896C12.0301 117.109 11.7581 117.44 11.5767 117.888C11.3954 118.336 11.3047 118.912 11.3047 119.616V119.968C11.3047 120.661 11.3954 121.237 11.5767 121.696C11.7581 122.144 12.0301 122.475 12.3928 122.688C12.7661 122.901 13.2248 123.008 13.7688 123.008ZM22.2857 124.192C21.4751 124.192 20.8244 123.984 20.3337 123.568C19.8431 123.152 19.5977 122.427 19.5977 121.392V115.584H21.0057V121.2C21.0057 121.552 21.0484 121.84 21.1337 122.064C21.2191 122.288 21.3417 122.464 21.5017 122.592C21.6617 122.72 21.8484 122.811 22.0617 122.864C22.2857 122.917 22.5257 122.944 22.7817 122.944C23.1871 122.944 23.5604 122.848 23.9017 122.656C24.2431 122.464 24.5204 122.187 24.7337 121.824C24.9577 121.451 25.0697 121.019 25.0697 120.528V115.584H26.4777V124H25.3417L25.2137 122.736H25.1017C24.8777 123.077 24.6217 123.355 24.3337 123.568C24.0564 123.781 23.7417 123.936 23.3898 124.032C23.0484 124.139 22.6804 124.192 22.2857 124.192ZM28.9021 124V115.584H30.0381L30.1661 116.976H30.2781C30.3635 116.709 30.4808 116.459 30.6301 116.224C30.7795 115.979 30.9821 115.781 31.2381 115.632C31.4941 115.472 31.8088 115.392 32.1821 115.392C32.3421 115.392 32.4861 115.408 32.6141 115.44C32.7528 115.461 32.8541 115.488 32.9181 115.52V116.816H32.3901C32.0275 116.816 31.7128 116.88 31.4461 117.008C31.1901 117.125 30.9768 117.296 30.8061 117.52C30.6355 117.744 30.5075 118.011 30.4221 118.32C30.3475 118.629 30.3101 118.96 30.3101 119.312V124H28.9021ZM37.7259 124V115.584H38.8619L38.9899 116.848H39.1019C39.3152 116.507 39.5552 116.229 39.8219 116.016C40.0885 115.803 40.3819 115.648 40.7019 115.552C41.0219 115.445 41.3685 115.392 41.7419 115.392C42.2859 115.392 42.7552 115.504 43.1499 115.728C43.5445 115.941 43.8379 116.315 44.0299 116.848H44.1259C44.3285 116.507 44.5632 116.235 44.8299 116.032C45.0965 115.819 45.3952 115.659 45.7259 115.552C46.0565 115.445 46.4085 115.392 46.7819 115.392C47.2939 115.392 47.7419 115.483 48.1259 115.664C48.5099 115.835 48.8085 116.123 49.0219 116.528C49.2459 116.923 49.3579 117.456 49.3579 118.128V124H47.9499V118.352C47.9499 118.011 47.9072 117.728 47.8219 117.504C47.7472 117.28 47.6352 117.109 47.4859 116.992C47.3365 116.864 47.1605 116.773 46.9579 116.72C46.7659 116.667 46.5579 116.64 46.3339 116.64C45.9605 116.64 45.6139 116.736 45.2939 116.928C44.9845 117.12 44.7339 117.397 44.5419 117.76C44.3499 118.123 44.2539 118.555 44.2539 119.056V124H42.8459V118.352C42.8459 118.011 42.8032 117.728 42.7179 117.504C42.6325 117.28 42.5205 117.109 42.3819 116.992C42.2432 116.864 42.0725 116.773 41.8699 116.72C41.6779 116.667 41.4752 116.64 41.2619 116.64C40.8779 116.64 40.5205 116.736 40.1899 116.928C39.8699 117.12 39.6139 117.397 39.4219 117.76C39.2299 118.123 39.1339 118.555 39.1339 119.056V124H37.7259ZM55.1875 124.192C54.3342 124.192 53.6142 124.037 53.0275 123.728C52.4515 123.408 52.0088 122.923 51.6995 122.272C51.4008 121.621 51.2515 120.795 51.2515 119.792C51.2515 118.779 51.4008 117.952 51.6995 117.312C52.0088 116.661 52.4515 116.181 53.0275 115.872C53.6142 115.552 54.3342 115.392 55.1875 115.392C56.0408 115.392 56.7555 115.552 57.3315 115.872C57.9182 116.181 58.3608 116.661 58.6595 117.312C58.9582 117.952 59.1075 118.779 59.1075 119.792C59.1075 120.795 58.9582 121.621 58.6595 122.272C58.3608 122.923 57.9182 123.408 57.3315 123.728C56.7555 124.037 56.0408 124.192 55.1875 124.192ZM55.1875 123.008C55.7315 123.008 56.1848 122.901 56.5475 122.688C56.9102 122.475 57.1822 122.144 57.3635 121.696C57.5555 121.237 57.6515 120.661 57.6515 119.968V119.616C57.6515 118.912 57.5555 118.336 57.3635 117.888C57.1822 117.44 56.9102 117.109 56.5475 116.896C56.1848 116.683 55.7315 116.576 55.1875 116.576C54.6435 116.576 54.1848 116.683 53.8115 116.896C53.4488 117.109 53.1768 117.44 52.9955 117.888C52.8142 118.336 52.7235 118.912 52.7235 119.616V119.968C52.7235 120.661 52.8142 121.237 52.9955 121.696C53.1768 122.144 53.4488 122.475 53.8115 122.688C54.1848 122.901 54.6435 123.008 55.1875 123.008ZM64.0405 124.192C63.4645 124.192 62.9578 124.133 62.5205 124.016C62.0832 123.899 61.7205 123.728 61.4325 123.504C61.1445 123.28 60.9258 123.013 60.7765 122.704C60.6272 122.395 60.5525 122.043 60.5525 121.648C60.5525 121.595 60.5525 121.547 60.5525 121.504C60.5525 121.451 60.5578 121.408 60.5685 121.376H61.9605C61.9498 121.419 61.9445 121.456 61.9445 121.488C61.9445 121.52 61.9445 121.552 61.9445 121.584C61.9552 121.957 62.0512 122.251 62.2325 122.464C62.4245 122.677 62.6858 122.827 63.0165 122.912C63.3472 122.997 63.7152 123.04 64.1205 123.04C64.4725 123.04 64.7978 122.997 65.0965 122.912C65.3952 122.816 65.6298 122.677 65.8005 122.496C65.9818 122.304 66.0725 122.064 66.0725 121.776C66.0725 121.424 65.9552 121.157 65.7205 120.976C65.4965 120.784 65.1978 120.635 64.8245 120.528C64.4512 120.421 64.0618 120.309 63.6565 120.192C63.3152 120.096 62.9738 119.989 62.6325 119.872C62.2912 119.755 61.9818 119.611 61.7045 119.44C61.4378 119.269 61.2192 119.051 61.0485 118.784C60.8885 118.507 60.8085 118.16 60.8085 117.744C60.8085 117.371 60.8832 117.04 61.0325 116.752C61.1925 116.464 61.4165 116.219 61.7045 116.016C61.9925 115.813 62.3392 115.664 62.7445 115.568C63.1605 115.461 63.6192 115.408 64.1205 115.408C64.6538 115.408 65.1178 115.467 65.5125 115.584C65.9178 115.701 66.2538 115.867 66.5205 116.08C66.7872 116.293 66.9845 116.539 67.1125 116.816C67.2405 117.083 67.3045 117.371 67.3045 117.68C67.3045 117.744 67.3045 117.808 67.3045 117.872C67.3045 117.925 67.2992 117.968 67.2885 118H65.9125V117.824C65.9125 117.611 65.8538 117.408 65.7365 117.216C65.6298 117.013 65.4378 116.853 65.1605 116.736C64.8938 116.608 64.5205 116.544 64.0405 116.544C63.7312 116.544 63.4645 116.571 63.2405 116.624C63.0165 116.667 62.8298 116.741 62.6805 116.848C62.5312 116.944 62.4192 117.061 62.3445 117.2C62.2698 117.328 62.2325 117.477 62.2325 117.648C62.2325 117.925 62.3232 118.139 62.5045 118.288C62.6858 118.437 62.9258 118.56 63.2245 118.656C63.5338 118.752 63.8645 118.859 64.2165 118.976C64.5898 119.083 64.9685 119.195 65.3525 119.312C65.7472 119.419 66.1045 119.557 66.4245 119.728C66.7552 119.899 67.0165 120.133 67.2085 120.432C67.4112 120.72 67.5125 121.104 67.5125 121.584C67.5125 122.032 67.4272 122.421 67.2565 122.752C67.0858 123.083 66.8405 123.355 66.5205 123.568C66.2112 123.781 65.8432 123.936 65.4165 124.032C65.0005 124.139 64.5418 124.192 64.0405 124.192ZM71.4607 124.192C71.0234 124.192 70.6821 124.112 70.4367 123.952C70.1914 123.781 70.0154 123.563 69.9087 123.296C69.8021 123.019 69.7487 122.725 69.7487 122.416V116.768H68.6607V115.584H69.7807L70.0367 113.232H71.1567V115.584H72.7407V116.768H71.1567V122.208C71.1567 122.475 71.2047 122.677 71.3007 122.816C71.3967 122.944 71.5781 123.008 71.8447 123.008H72.7407V123.936C72.6341 123.989 72.5061 124.032 72.3567 124.064C72.2074 124.096 72.0527 124.123 71.8927 124.144C71.7434 124.176 71.5994 124.192 71.4607 124.192ZM78.0665 124V115.584H79.2025L79.3305 116.976H79.4425C79.5278 116.709 79.6452 116.459 79.7945 116.224C79.9438 115.979 80.1465 115.781 80.4025 115.632C80.6585 115.472 80.9732 115.392 81.3465 115.392C81.5065 115.392 81.6505 115.408 81.7785 115.44C81.9172 115.461 82.0185 115.488 82.0825 115.52V116.816H81.5545C81.1918 116.816 80.8772 116.88 80.6105 117.008C80.3545 117.125 80.1412 117.296 79.9705 117.52C79.7998 117.744 79.6718 118.011 79.5865 118.32C79.5118 118.629 79.4745 118.96 79.4745 119.312V124H78.0665ZM86.8227 124.192C85.9907 124.192 85.2867 124.037 84.7107 123.728C84.1454 123.408 83.7134 122.923 83.4147 122.272C83.1267 121.621 82.9827 120.795 82.9827 119.792C82.9827 118.779 83.1267 117.952 83.4147 117.312C83.7134 116.661 84.1507 116.181 84.7267 115.872C85.3027 115.552 86.0227 115.392 86.8867 115.392C87.6761 115.392 88.3374 115.547 88.8707 115.856C89.4041 116.155 89.8041 116.608 90.0707 117.216C90.3481 117.813 90.4867 118.565 90.4867 119.472V120.144H84.4387C84.4601 120.816 84.5561 121.371 84.7267 121.808C84.9081 122.235 85.1747 122.549 85.5267 122.752C85.8787 122.944 86.3214 123.04 86.8547 123.04C87.2174 123.04 87.5321 122.997 87.7987 122.912C88.0761 122.816 88.3054 122.683 88.4867 122.512C88.6787 122.341 88.8227 122.139 88.9187 121.904C89.0147 121.669 89.0681 121.413 89.0787 121.136H90.4548C90.4441 121.584 90.3587 122 90.1987 122.384C90.0387 122.757 89.8041 123.077 89.4947 123.344C89.1854 123.611 88.8067 123.819 88.3587 123.968C87.9107 124.117 87.3987 124.192 86.8227 124.192ZM84.4707 119.088H89.0307C89.0307 118.619 88.9774 118.224 88.8707 117.904C88.7641 117.584 88.6094 117.323 88.4067 117.12C88.2147 116.917 87.9854 116.773 87.7187 116.688C87.4627 116.592 87.1694 116.544 86.8387 116.544C86.3481 116.544 85.9321 116.635 85.5907 116.816C85.2494 116.997 84.9881 117.275 84.8067 117.648C84.6254 118.021 84.5134 118.501 84.4707 119.088ZM95.6684 124.192C94.8577 124.192 94.175 124.037 93.6204 123.728C93.0764 123.408 92.6604 122.923 92.3724 122.272C92.095 121.611 91.9564 120.784 91.9564 119.792C91.9564 118.8 92.095 117.979 92.3724 117.328C92.6604 116.677 93.0817 116.192 93.6364 115.872C94.2017 115.552 94.895 115.392 95.7164 115.392C96.2924 115.392 96.7884 115.467 97.2044 115.616C97.631 115.765 97.983 115.984 98.2604 116.272C98.5377 116.56 98.7404 116.907 98.8684 117.312C99.007 117.717 99.0764 118.181 99.0764 118.704H97.6524C97.6524 118.213 97.583 117.813 97.4444 117.504C97.3164 117.184 97.1084 116.949 96.8204 116.8C96.5324 116.64 96.1537 116.56 95.6844 116.56C95.215 116.56 94.8097 116.667 94.4684 116.88C94.127 117.083 93.8657 117.408 93.6844 117.856C93.503 118.304 93.4124 118.896 93.4124 119.632V119.968C93.4124 120.661 93.4977 121.237 93.6684 121.696C93.8497 122.155 94.111 122.491 94.4524 122.704C94.7937 122.917 95.2097 123.024 95.7004 123.024C96.1804 123.024 96.5644 122.939 96.8524 122.768C97.151 122.597 97.3644 122.352 97.4924 122.032C97.631 121.712 97.7004 121.328 97.7004 120.88H99.0764C99.0764 121.349 99.007 121.787 98.8684 122.192C98.7404 122.597 98.5377 122.949 98.2604 123.248C97.983 123.547 97.631 123.781 97.2044 123.952C96.7777 124.112 96.2657 124.192 95.6684 124.192ZM104.365 124.192C103.533 124.192 102.829 124.037 102.253 123.728C101.688 123.408 101.256 122.923 100.957 122.272C100.669 121.621 100.525 120.795 100.525 119.792C100.525 118.779 100.669 117.952 100.957 117.312C101.256 116.661 101.693 116.181 102.269 115.872C102.845 115.552 103.565 115.392 104.429 115.392C105.219 115.392 105.88 115.547 106.413 115.856C106.947 116.155 107.347 116.608 107.613 117.216C107.891 117.813 108.029 118.565 108.029 119.472V120.144H101.981C102.003 120.816 102.099 121.371 102.269 121.808C102.451 122.235 102.717 122.549 103.069 122.752C103.421 122.944 103.864 123.04 104.397 123.04C104.76 123.04 105.075 122.997 105.341 122.912C105.619 122.816 105.848 122.683 106.029 122.512C106.221 122.341 106.365 122.139 106.461 121.904C106.557 121.669 106.611 121.413 106.621 121.136H107.997C107.987 121.584 107.901 122 107.741 122.384C107.581 122.757 107.347 123.077 107.037 123.344C106.728 123.611 106.349 123.819 105.901 123.968C105.453 124.117 104.941 124.192 104.365 124.192ZM102.013 119.088H106.573C106.573 118.619 106.52 118.224 106.413 117.904C106.307 117.584 106.152 117.323 105.949 117.12C105.757 116.917 105.528 116.773 105.261 116.688C105.005 116.592 104.712 116.544 104.381 116.544C103.891 116.544 103.475 116.635 103.133 116.816C102.792 116.997 102.531 117.275 102.349 117.648C102.168 118.021 102.056 118.501 102.013 119.088ZM110.011 124V115.584H111.147L111.275 116.848H111.387C111.611 116.507 111.862 116.229 112.139 116.016C112.427 115.803 112.742 115.648 113.083 115.552C113.435 115.445 113.808 115.392 114.203 115.392C114.736 115.392 115.2 115.483 115.595 115.664C116 115.845 116.315 116.139 116.539 116.544C116.774 116.949 116.891 117.499 116.891 118.192V124H115.483V118.384C115.483 118.032 115.435 117.744 115.339 117.52C115.254 117.296 115.131 117.12 114.971 116.992C114.822 116.864 114.635 116.773 114.411 116.72C114.198 116.667 113.958 116.64 113.691 116.64C113.296 116.64 112.923 116.736 112.571 116.928C112.219 117.12 111.936 117.397 111.723 117.76C111.52 118.123 111.419 118.555 111.419 119.056V124H110.011ZM121.234 124.192C120.797 124.192 120.456 124.112 120.21 123.952C119.965 123.781 119.789 123.563 119.682 123.296C119.576 123.019 119.522 122.725 119.522 122.416V116.768H118.434V115.584H119.554L119.81 113.232H120.93V115.584H122.514V116.768H120.93V122.208C120.93 122.475 120.978 122.677 121.074 122.816C121.17 122.944 121.352 123.008 121.618 123.008H122.514V123.936C122.408 123.989 122.28 124.032 122.13 124.064C121.981 124.096 121.826 124.123 121.666 124.144C121.517 124.176 121.373 124.192 121.234 124.192ZM129.808 124.192C129.371 124.192 129.03 124.112 128.784 123.952C128.539 123.781 128.363 123.563 128.256 123.296C128.15 123.019 128.096 122.725 128.096 122.416V116.768H127.008V115.584H128.128L128.384 113.232H129.504V115.584H131.088V116.768H129.504V122.208C129.504 122.475 129.552 122.677 129.648 122.816C129.744 122.944 129.926 123.008 130.192 123.008H131.088V123.936C130.982 123.989 130.854 124.032 130.704 124.064C130.555 124.096 130.4 124.123 130.24 124.144C130.091 124.176 129.947 124.192 129.808 124.192ZM132.83 124V115.584H133.966L134.094 116.976H134.206C134.292 116.709 134.409 116.459 134.558 116.224C134.708 115.979 134.91 115.781 135.166 115.632C135.422 115.472 135.737 115.392 136.11 115.392C136.27 115.392 136.414 115.408 136.542 115.44C136.681 115.461 136.782 115.488 136.846 115.52V116.816H136.318C135.956 116.816 135.641 116.88 135.374 117.008C135.118 117.125 134.905 117.296 134.734 117.52C134.564 117.744 134.436 118.011 134.35 118.32C134.276 118.629 134.238 118.96 134.238 119.312V124H132.83ZM140.338 124.192C140.029 124.192 139.72 124.155 139.41 124.08C139.101 124.005 138.813 123.883 138.546 123.712C138.28 123.541 138.066 123.307 137.906 123.008C137.746 122.699 137.666 122.315 137.666 121.856C137.666 121.28 137.805 120.805 138.082 120.432C138.36 120.059 138.744 119.771 139.234 119.568C139.736 119.355 140.328 119.211 141.01 119.136C141.693 119.051 142.434 119.008 143.234 119.008V118.048C143.234 117.739 143.181 117.472 143.074 117.248C142.968 117.024 142.776 116.853 142.498 116.736C142.232 116.608 141.848 116.544 141.346 116.544C140.866 116.544 140.482 116.608 140.194 116.736C139.917 116.853 139.72 117.008 139.602 117.2C139.496 117.392 139.442 117.605 139.442 117.84V118.08H138.082C138.072 118.027 138.066 117.973 138.066 117.92C138.066 117.867 138.066 117.803 138.066 117.728C138.066 117.216 138.205 116.789 138.482 116.448C138.77 116.096 139.17 115.835 139.682 115.664C140.194 115.483 140.781 115.392 141.442 115.392C142.146 115.392 142.733 115.493 143.202 115.696C143.682 115.899 144.04 116.187 144.274 116.56C144.52 116.933 144.642 117.381 144.642 117.904V122.464C144.642 122.667 144.69 122.811 144.786 122.896C144.882 122.971 145 123.008 145.138 123.008H145.762V123.936C145.613 124 145.448 124.053 145.266 124.096C145.085 124.149 144.877 124.176 144.642 124.176C144.365 124.176 144.136 124.117 143.954 124C143.773 123.893 143.634 123.744 143.538 123.552C143.442 123.349 143.378 123.125 143.346 122.88H143.234C143.042 123.147 142.797 123.381 142.498 123.584C142.21 123.776 141.885 123.925 141.522 124.032C141.16 124.139 140.765 124.192 140.338 124.192ZM140.69 123.008C141.032 123.008 141.352 122.955 141.65 122.848C141.96 122.741 142.232 122.592 142.466 122.4C142.701 122.197 142.888 121.957 143.026 121.68C143.165 121.403 143.234 121.099 143.234 120.768V120.064C142.37 120.064 141.634 120.112 141.026 120.208C140.418 120.304 139.949 120.475 139.618 120.72C139.298 120.965 139.138 121.312 139.138 121.76C139.138 122.048 139.202 122.283 139.33 122.464C139.458 122.645 139.64 122.784 139.874 122.88C140.109 122.965 140.381 123.008 140.69 123.008ZM147.185 124V115.584H148.321L148.449 116.848H148.561C148.785 116.507 149.036 116.229 149.313 116.016C149.601 115.803 149.916 115.648 150.257 115.552C150.609 115.445 150.983 115.392 151.377 115.392C151.911 115.392 152.375 115.483 152.769 115.664C153.175 115.845 153.489 116.139 153.713 116.544C153.948 116.949 154.065 117.499 154.065 118.192V124H152.657V118.384C152.657 118.032 152.609 117.744 152.513 117.52C152.428 117.296 152.305 117.12 152.145 116.992C151.996 116.864 151.809 116.773 151.585 116.72C151.372 116.667 151.132 116.64 150.865 116.64C150.471 116.64 150.097 116.736 149.745 116.928C149.393 117.12 149.111 117.397 148.897 117.76C148.695 118.123 148.593 118.555 148.593 119.056V124H147.185ZM159.385 124.192C158.809 124.192 158.302 124.133 157.865 124.016C157.428 123.899 157.065 123.728 156.777 123.504C156.489 123.28 156.27 123.013 156.121 122.704C155.972 122.395 155.897 122.043 155.897 121.648C155.897 121.595 155.897 121.547 155.897 121.504C155.897 121.451 155.902 121.408 155.913 121.376H157.305C157.294 121.419 157.289 121.456 157.289 121.488C157.289 121.52 157.289 121.552 157.289 121.584C157.3 121.957 157.396 122.251 157.577 122.464C157.769 122.677 158.03 122.827 158.361 122.912C158.692 122.997 159.06 123.04 159.465 123.04C159.817 123.04 160.142 122.997 160.441 122.912C160.74 122.816 160.974 122.677 161.145 122.496C161.326 122.304 161.417 122.064 161.417 121.776C161.417 121.424 161.3 121.157 161.065 120.976C160.841 120.784 160.542 120.635 160.169 120.528C159.796 120.421 159.406 120.309 159.001 120.192C158.66 120.096 158.318 119.989 157.977 119.872C157.636 119.755 157.326 119.611 157.049 119.44C156.782 119.269 156.564 119.051 156.393 118.784C156.233 118.507 156.153 118.16 156.153 117.744C156.153 117.371 156.228 117.04 156.377 116.752C156.537 116.464 156.761 116.219 157.049 116.016C157.337 115.813 157.684 115.664 158.089 115.568C158.505 115.461 158.964 115.408 159.465 115.408C159.998 115.408 160.462 115.467 160.857 115.584C161.262 115.701 161.598 115.867 161.865 116.08C162.132 116.293 162.329 116.539 162.457 116.816C162.585 117.083 162.649 117.371 162.649 117.68C162.649 117.744 162.649 117.808 162.649 117.872C162.649 117.925 162.644 117.968 162.633 118H161.257V117.824C161.257 117.611 161.198 117.408 161.081 117.216C160.974 117.013 160.782 116.853 160.505 116.736C160.238 116.608 159.865 116.544 159.385 116.544C159.076 116.544 158.809 116.571 158.585 116.624C158.361 116.667 158.174 116.741 158.025 116.848C157.876 116.944 157.764 117.061 157.689 117.2C157.614 117.328 157.577 117.477 157.577 117.648C157.577 117.925 157.668 118.139 157.849 118.288C158.03 118.437 158.27 118.56 158.569 118.656C158.878 118.752 159.209 118.859 159.561 118.976C159.934 119.083 160.313 119.195 160.697 119.312C161.092 119.419 161.449 119.557 161.769 119.728C162.1 119.899 162.361 120.133 162.553 120.432C162.756 120.72 162.857 121.104 162.857 121.584C162.857 122.032 162.772 122.421 162.601 122.752C162.43 123.083 162.185 123.355 161.865 123.568C161.556 123.781 161.188 123.936 160.761 124.032C160.345 124.139 159.886 124.192 159.385 124.192ZM166.949 124.192C166.64 124.192 166.33 124.155 166.021 124.08C165.712 124.005 165.424 123.883 165.157 123.712C164.89 123.541 164.677 123.307 164.517 123.008C164.357 122.699 164.277 122.315 164.277 121.856C164.277 121.28 164.416 120.805 164.693 120.432C164.97 120.059 165.354 119.771 165.845 119.568C166.346 119.355 166.938 119.211 167.621 119.136C168.304 119.051 169.045 119.008 169.845 119.008V118.048C169.845 117.739 169.792 117.472 169.685 117.248C169.578 117.024 169.386 116.853 169.109 116.736C168.842 116.608 168.458 116.544 167.957 116.544C167.477 116.544 167.093 116.608 166.805 116.736C166.528 116.853 166.33 117.008 166.213 117.2C166.106 117.392 166.053 117.605 166.053 117.84V118.08H164.693C164.682 118.027 164.677 117.973 164.677 117.92C164.677 117.867 164.677 117.803 164.677 117.728C164.677 117.216 164.816 116.789 165.093 116.448C165.381 116.096 165.781 115.835 166.293 115.664C166.805 115.483 167.392 115.392 168.053 115.392C168.757 115.392 169.344 115.493 169.813 115.696C170.293 115.899 170.65 116.187 170.885 116.56C171.13 116.933 171.253 117.381 171.253 117.904V122.464C171.253 122.667 171.301 122.811 171.397 122.896C171.493 122.971 171.61 123.008 171.749 123.008H172.373V123.936C172.224 124 172.058 124.053 171.877 124.096C171.696 124.149 171.488 124.176 171.253 124.176C170.976 124.176 170.746 124.117 170.565 124C170.384 123.893 170.245 123.744 170.149 123.552C170.053 123.349 169.989 123.125 169.957 122.88H169.845C169.653 123.147 169.408 123.381 169.109 123.584C168.821 123.776 168.496 123.925 168.133 124.032C167.77 124.139 167.376 124.192 166.949 124.192ZM167.301 123.008C167.642 123.008 167.962 122.955 168.261 122.848C168.57 122.741 168.842 122.592 169.077 122.4C169.312 122.197 169.498 121.957 169.637 121.68C169.776 121.403 169.845 121.099 169.845 120.768V120.064C168.981 120.064 168.245 120.112 167.637 120.208C167.029 120.304 166.56 120.475 166.229 120.72C165.909 120.965 165.749 121.312 165.749 121.76C165.749 122.048 165.813 122.283 165.941 122.464C166.069 122.645 166.25 122.784 166.485 122.88C166.72 122.965 166.992 123.008 167.301 123.008ZM176.996 124.192C176.185 124.192 175.503 124.037 174.948 123.728C174.404 123.408 173.988 122.923 173.7 122.272C173.423 121.611 173.284 120.784 173.284 119.792C173.284 118.8 173.423 117.979 173.7 117.328C173.988 116.677 174.409 116.192 174.964 115.872C175.529 115.552 176.223 115.392 177.044 115.392C177.62 115.392 178.116 115.467 178.532 115.616C178.959 115.765 179.311 115.984 179.588 116.272C179.865 116.56 180.068 116.907 180.196 117.312C180.335 117.717 180.404 118.181 180.404 118.704H178.98C178.98 118.213 178.911 117.813 178.772 117.504C178.644 117.184 178.436 116.949 178.148 116.8C177.86 116.64 177.481 116.56 177.012 116.56C176.543 116.56 176.137 116.667 175.796 116.88C175.455 117.083 175.193 117.408 175.012 117.856C174.831 118.304 174.74 118.896 174.74 119.632V119.968C174.74 120.661 174.825 121.237 174.996 121.696C175.177 122.155 175.439 122.491 175.78 122.704C176.121 122.917 176.537 123.024 177.028 123.024C177.508 123.024 177.892 122.939 178.18 122.768C178.479 122.597 178.692 122.352 178.82 122.032C178.959 121.712 179.028 121.328 179.028 120.88H180.404C180.404 121.349 180.335 121.787 180.196 122.192C180.068 122.597 179.865 122.949 179.588 123.248C179.311 123.547 178.959 123.781 178.532 123.952C178.105 124.112 177.593 124.192 176.996 124.192ZM184.301 124.192C183.863 124.192 183.522 124.112 183.277 123.952C183.031 123.781 182.855 123.563 182.749 123.296C182.642 123.019 182.589 122.725 182.589 122.416V116.768H181.501V115.584H182.621L182.877 113.232H183.997V115.584H185.581V116.768H183.997V122.208C183.997 122.475 184.045 122.677 184.141 122.816C184.237 122.944 184.418 123.008 184.685 123.008H185.581V123.936C185.474 123.989 185.346 124.032 185.197 124.064C185.047 124.096 184.893 124.123 184.733 124.144C184.583 124.176 184.439 124.192 184.301 124.192ZM187.323 114V112.432H188.731V114H187.323ZM187.323 124V115.584H188.731V124H187.323ZM194.613 124.192C193.759 124.192 193.039 124.037 192.453 123.728C191.877 123.408 191.434 122.923 191.125 122.272C190.826 121.621 190.677 120.795 190.677 119.792C190.677 118.779 190.826 117.952 191.125 117.312C191.434 116.661 191.877 116.181 192.453 115.872C193.039 115.552 193.759 115.392 194.613 115.392C195.466 115.392 196.181 115.552 196.757 115.872C197.343 116.181 197.786 116.661 198.085 117.312C198.383 117.952 198.533 118.779 198.533 119.792C198.533 120.795 198.383 121.621 198.085 122.272C197.786 122.923 197.343 123.408 196.757 123.728C196.181 124.037 195.466 124.192 194.613 124.192ZM194.613 123.008C195.157 123.008 195.61 122.901 195.973 122.688C196.335 122.475 196.607 122.144 196.789 121.696C196.981 121.237 197.077 120.661 197.077 119.968V119.616C197.077 118.912 196.981 118.336 196.789 117.888C196.607 117.44 196.335 117.109 195.973 116.896C195.61 116.683 195.157 116.576 194.613 116.576C194.069 116.576 193.61 116.683 193.237 116.896C192.874 117.109 192.602 117.44 192.421 117.888C192.239 118.336 192.149 118.912 192.149 119.616V119.968C192.149 120.661 192.239 121.237 192.421 121.696C192.602 122.144 192.874 122.475 193.237 122.688C193.61 122.901 194.069 123.008 194.613 123.008ZM200.521 124V115.584H201.657L201.785 116.848H201.897C202.121 116.507 202.372 116.229 202.649 116.016C202.937 115.803 203.252 115.648 203.593 115.552C203.945 115.445 204.319 115.392 204.713 115.392C205.247 115.392 205.711 115.483 206.105 115.664C206.511 115.845 206.825 116.139 207.049 116.544C207.284 116.949 207.401 117.499 207.401 118.192V124H205.993V118.384C205.993 118.032 205.945 117.744 205.849 117.52C205.764 117.296 205.641 117.12 205.481 116.992C205.332 116.864 205.145 116.773 204.921 116.72C204.708 116.667 204.468 116.64 204.201 116.64C203.807 116.64 203.433 116.736 203.081 116.928C202.729 117.12 202.447 117.397 202.233 117.76C202.031 118.123 201.929 118.555 201.929 119.056V124H200.521ZM214.977 124L212.433 115.584H213.889L215.169 120.208C215.233 120.432 215.292 120.677 215.345 120.944C215.409 121.2 215.468 121.44 215.521 121.664C215.585 121.877 215.628 122.043 215.649 122.16H215.745C215.788 121.957 215.836 121.728 215.889 121.472C215.953 121.216 216.006 120.971 216.049 120.736C216.102 120.501 216.145 120.32 216.177 120.192L217.329 115.584H218.849L220.017 120.192C220.06 120.373 220.108 120.587 220.161 120.832C220.214 121.067 220.268 121.301 220.321 121.536C220.385 121.771 220.428 121.979 220.449 122.16H220.545C220.588 121.989 220.636 121.792 220.689 121.568C220.742 121.333 220.801 121.099 220.865 120.864C220.929 120.619 220.988 120.405 221.041 120.224L222.305 115.584H223.649L221.121 124H219.681L218.593 119.648C218.55 119.445 218.497 119.211 218.433 118.944C218.369 118.667 218.305 118.389 218.241 118.112C218.188 117.824 218.14 117.573 218.097 117.36H218.001C217.98 117.52 217.942 117.723 217.889 117.968C217.846 118.213 217.793 118.485 217.729 118.784C217.665 119.072 217.59 119.36 217.505 119.648L216.417 124H214.977ZM225.163 114V112.432H226.571V114H225.163ZM225.163 124V115.584H226.571V124H225.163ZM228.997 124V112.432H230.405V124H228.997ZM232.831 124V112.432H234.239V124H232.831ZM243.192 124.192C242.616 124.192 242.11 124.133 241.672 124.016C241.235 123.899 240.872 123.728 240.584 123.504C240.296 123.28 240.078 123.013 239.928 122.704C239.779 122.395 239.704 122.043 239.704 121.648C239.704 121.595 239.704 121.547 239.704 121.504C239.704 121.451 239.71 121.408 239.72 121.376H241.112C241.102 121.419 241.096 121.456 241.096 121.488C241.096 121.52 241.096 121.552 241.096 121.584C241.107 121.957 241.203 122.251 241.384 122.464C241.576 122.677 241.838 122.827 242.168 122.912C242.499 122.997 242.867 123.04 243.272 123.04C243.624 123.04 243.95 122.997 244.248 122.912C244.547 122.816 244.782 122.677 244.952 122.496C245.134 122.304 245.224 122.064 245.224 121.776C245.224 121.424 245.107 121.157 244.872 120.976C244.648 120.784 244.35 120.635 243.976 120.528C243.603 120.421 243.214 120.309 242.808 120.192C242.467 120.096 242.126 119.989 241.784 119.872C241.443 119.755 241.134 119.611 240.856 119.44C240.59 119.269 240.371 119.051 240.2 118.784C240.04 118.507 239.96 118.16 239.96 117.744C239.96 117.371 240.035 117.04 240.184 116.752C240.344 116.464 240.568 116.219 240.856 116.016C241.144 115.813 241.491 115.664 241.896 115.568C242.312 115.461 242.771 115.408 243.272 115.408C243.806 115.408 244.27 115.467 244.664 115.584C245.07 115.701 245.406 115.867 245.672 116.08C245.939 116.293 246.136 116.539 246.264 116.816C246.392 117.083 246.456 117.371 246.456 117.68C246.456 117.744 246.456 117.808 246.456 117.872C246.456 117.925 246.451 117.968 246.44 118H245.064V117.824C245.064 117.611 245.006 117.408 244.888 117.216C244.782 117.013 244.59 116.853 244.312 116.736C244.046 116.608 243.672 116.544 243.192 116.544C242.883 116.544 242.616 116.571 242.392 116.624C242.168 116.667 241.982 116.741 241.832 116.848C241.683 116.944 241.571 117.061 241.496 117.2C241.422 117.328 241.384 117.477 241.384 117.648C241.384 117.925 241.475 118.139 241.656 118.288C241.838 118.437 242.078 118.56 242.376 118.656C242.686 118.752 243.016 118.859 243.368 118.976C243.742 119.083 244.12 119.195 244.504 119.312C244.899 119.419 245.256 119.557 245.576 119.728C245.907 119.899 246.168 120.133 246.36 120.432C246.563 120.72 246.664 121.104 246.664 121.584C246.664 122.032 246.579 122.421 246.408 122.752C246.238 123.083 245.992 123.355 245.672 123.568C245.363 123.781 244.995 123.936 244.568 124.032C244.152 124.139 243.694 124.192 243.192 124.192ZM248.645 124V112.432H250.053V116.64H250.165C250.378 116.352 250.618 116.117 250.885 115.936C251.151 115.755 251.445 115.621 251.765 115.536C252.095 115.44 252.453 115.392 252.837 115.392C253.37 115.392 253.834 115.483 254.229 115.664C254.634 115.845 254.949 116.139 255.173 116.544C255.407 116.949 255.525 117.499 255.525 118.192V124H254.117V118.384C254.117 118.032 254.069 117.744 253.973 117.52C253.887 117.296 253.765 117.12 253.605 116.992C253.455 116.864 253.269 116.773 253.045 116.72C252.831 116.667 252.591 116.64 252.325 116.64C251.93 116.64 251.557 116.736 251.205 116.928C250.853 117.109 250.57 117.381 250.357 117.744C250.154 118.096 250.053 118.533 250.053 119.056V124H248.645ZM261.356 124.192C260.503 124.192 259.783 124.037 259.196 123.728C258.62 123.408 258.178 122.923 257.868 122.272C257.57 121.621 257.42 120.795 257.42 119.792C257.42 118.779 257.57 117.952 257.868 117.312C258.178 116.661 258.62 116.181 259.196 115.872C259.783 115.552 260.503 115.392 261.356 115.392C262.21 115.392 262.924 115.552 263.5 115.872C264.087 116.181 264.53 116.661 264.828 117.312C265.127 117.952 265.276 118.779 265.276 119.792C265.276 120.795 265.127 121.621 264.828 122.272C264.53 122.923 264.087 123.408 263.5 123.728C262.924 124.037 262.21 124.192 261.356 124.192ZM261.356 123.008C261.9 123.008 262.354 122.901 262.716 122.688C263.079 122.475 263.351 122.144 263.532 121.696C263.724 121.237 263.82 120.661 263.82 119.968V119.616C263.82 118.912 263.724 118.336 263.532 117.888C263.351 117.44 263.079 117.109 262.716 116.896C262.354 116.683 261.9 116.576 261.356 116.576C260.812 116.576 260.354 116.683 259.98 116.896C259.618 117.109 259.346 117.44 259.164 117.888C258.983 118.336 258.892 118.912 258.892 119.616V119.968C258.892 120.661 258.983 121.237 259.164 121.696C259.346 122.144 259.618 122.475 259.98 122.688C260.354 122.901 260.812 123.008 261.356 123.008ZM268.803 124L266.259 115.584H267.715L268.995 120.208C269.059 120.432 269.118 120.677 269.171 120.944C269.235 121.2 269.294 121.44 269.347 121.664C269.411 121.877 269.454 122.043 269.475 122.16H269.571C269.614 121.957 269.662 121.728 269.715 121.472C269.779 121.216 269.832 120.971 269.875 120.736C269.928 120.501 269.971 120.32 270.003 120.192L271.155 115.584H272.675L273.843 120.192C273.886 120.373 273.934 120.587 273.987 120.832C274.04 121.067 274.094 121.301 274.147 121.536C274.211 121.771 274.254 121.979 274.275 122.16H274.371C274.414 121.989 274.462 121.792 274.515 121.568C274.568 121.333 274.627 121.099 274.691 120.864C274.755 120.619 274.814 120.405 274.867 120.224L276.131 115.584H277.475L274.947 124H273.507L272.419 119.648C272.376 119.445 272.323 119.211 272.259 118.944C272.195 118.667 272.131 118.389 272.067 118.112C272.014 117.824 271.966 117.573 271.923 117.36H271.827C271.806 117.52 271.768 117.723 271.715 117.968C271.672 118.213 271.619 118.485 271.555 118.784C271.491 119.072 271.416 119.36 271.331 119.648L270.243 124H268.803ZM282.573 124V112.432H283.981V116.64H284.093C284.307 116.352 284.547 116.117 284.813 115.936C285.08 115.755 285.373 115.621 285.693 115.536C286.024 115.44 286.381 115.392 286.765 115.392C287.299 115.392 287.763 115.483 288.157 115.664C288.563 115.845 288.877 116.139 289.101 116.544C289.336 116.949 289.453 117.499 289.453 118.192V124H288.045V118.384C288.045 118.032 287.997 117.744 287.901 117.52C287.816 117.296 287.693 117.12 287.533 116.992C287.384 116.864 287.197 116.773 286.973 116.72C286.76 116.667 286.52 116.64 286.253 116.64C285.859 116.64 285.485 116.736 285.133 116.928C284.781 117.109 284.499 117.381 284.285 117.744C284.083 118.096 283.981 118.533 283.981 119.056V124H282.573ZM295.189 124.192C294.357 124.192 293.653 124.037 293.077 123.728C292.512 123.408 292.08 122.923 291.781 122.272C291.493 121.621 291.349 120.795 291.349 119.792C291.349 118.779 291.493 117.952 291.781 117.312C292.08 116.661 292.517 116.181 293.093 115.872C293.669 115.552 294.389 115.392 295.253 115.392C296.042 115.392 296.704 115.547 297.237 115.856C297.77 116.155 298.17 116.608 298.437 117.216C298.714 117.813 298.853 118.565 298.853 119.472V120.144H292.805C292.826 120.816 292.922 121.371 293.093 121.808C293.274 122.235 293.541 122.549 293.893 122.752C294.245 122.944 294.688 123.04 295.221 123.04C295.584 123.04 295.898 122.997 296.165 122.912C296.442 122.816 296.672 122.683 296.853 122.512C297.045 122.341 297.189 122.139 297.285 121.904C297.381 121.669 297.434 121.413 297.445 121.136H298.821C298.81 121.584 298.725 122 298.565 122.384C298.405 122.757 298.17 123.077 297.861 123.344C297.552 123.611 297.173 123.819 296.725 123.968C296.277 124.117 295.765 124.192 295.189 124.192ZM292.837 119.088H297.397C297.397 118.619 297.344 118.224 297.237 117.904C297.13 117.584 296.976 117.323 296.773 117.12C296.581 116.917 296.352 116.773 296.085 116.688C295.829 116.592 295.536 116.544 295.205 116.544C294.714 116.544 294.298 116.635 293.957 116.816C293.616 116.997 293.354 117.275 293.173 117.648C292.992 118.021 292.88 118.501 292.837 119.088ZM300.835 124V115.584H301.971L302.099 116.976H302.211C302.296 116.709 302.413 116.459 302.563 116.224C302.712 115.979 302.915 115.781 303.171 115.632C303.427 115.472 303.741 115.392 304.115 115.392C304.275 115.392 304.419 115.408 304.547 115.44C304.685 115.461 304.787 115.488 304.851 115.52V116.816H304.323C303.96 116.816 303.645 116.88 303.379 117.008C303.123 117.125 302.909 117.296 302.739 117.52C302.568 117.744 302.44 118.011 302.355 118.32C302.28 118.629 302.243 118.96 302.243 119.312V124H300.835ZM309.591 124.192C308.759 124.192 308.055 124.037 307.479 123.728C306.914 123.408 306.482 122.923 306.183 122.272C305.895 121.621 305.751 120.795 305.751 119.792C305.751 118.779 305.895 117.952 306.183 117.312C306.482 116.661 306.919 116.181 307.495 115.872C308.071 115.552 308.791 115.392 309.655 115.392C310.444 115.392 311.106 115.547 311.639 115.856C312.172 116.155 312.572 116.608 312.839 117.216C313.116 117.813 313.255 118.565 313.255 119.472V120.144H307.207C307.228 120.816 307.324 121.371 307.495 121.808C307.676 122.235 307.943 122.549 308.295 122.752C308.647 122.944 309.09 123.04 309.623 123.04C309.986 123.04 310.3 122.997 310.567 122.912C310.844 122.816 311.074 122.683 311.255 122.512C311.447 122.341 311.591 122.139 311.687 121.904C311.783 121.669 311.836 121.413 311.847 121.136H313.223C313.212 121.584 313.127 122 312.967 122.384C312.807 122.757 312.572 123.077 312.263 123.344C311.954 123.611 311.575 123.819 311.127 123.968C310.679 124.117 310.167 124.192 309.591 124.192ZM307.239 119.088H311.799C311.799 118.619 311.746 118.224 311.639 117.904C311.532 117.584 311.378 117.323 311.175 117.12C310.983 116.917 310.754 116.773 310.487 116.688C310.231 116.592 309.938 116.544 309.607 116.544C309.116 116.544 308.7 116.635 308.359 116.816C308.018 116.997 307.756 117.275 307.575 117.648C307.394 118.021 307.282 118.501 307.239 119.088Z" fill="#0B011D"/>
<defs>
<clipPath id="clip0_1069_22976">
<rect width="164" height="76.0003" fill="white" transform="translate(75)"/>
</clipPath>
</defs>
</svg>
